<?xml version="1.0" standalone="no"?>
<!DOCTYPE svg PUBLIC "-//W3C//DTD SVG 20010904//EN"
 "http://www.w3.org/TR/2001/REC-SVG-20010904/DTD/svg10.dtd">
<svg version="1.0" xmlns="http://www.w3.org/2000/svg"
 width="544.000000pt" height="544.000000pt" viewBox="0 0 544.000000 544.000000"
 preserveAspectRatio="xMidYMid meet">
<metadata>
Created by potrace 1.11, written by Peter Selinger 2001-2013
</metadata>
<g transform="translate(0.000000,544.000000) scale(0.100000,-0.100000)"
fill="#000000" stroke="none">
<path d="M217 5421 c-33 -39 -41 -85 -22 -124 8 -17 22 -70 31 -118 16 -83 15
-88 -4 -132 -13 -29 -19 -60 -17 -89 5 -63 6 -327 1 -368 -3 -23 5 -56 21 -95
13 -33 28 -78 33 -100 5 -22 24 -83 43 -137 51 -140 82 -320 80 -468 0 -36 -2
-117 -3 -180 -2 -134 4 -178 31 -231 23 -43 25 -68 15 -229 -6 -114 -6 -116
29 -215 19 -54 31 -102 27 -106 -4 -4 -70 -26 -147 -49 -77 -23 -146 -46 -154
-50 -12 -6 34 -25 112 -46 4 -1 8 -2 10 -4 1 -1 9 -3 17 -5 22 -4 224 -68 229
-72 3 -2 6 -53 7 -114 4 -182 -31 -262 -138 -319 -21 -11 -45 -32 -55 -46 -16
-25 -16 -29 1 -77 10 -28 32 -72 49 -99 27 -40 46 -55 115 -90 95 -47 104 -59
108 -158 3 -75 -3 -86 -82 -169 -29 -30 -52 -57 -51 -58 3 -2 80 14 108 23 18
5 18 59 4 -611 -3 -181 -8 -413 -10 -515 -2 -102 -5 -220 -6 -263 -1 -43 1
-80 3 -83 12 -11 2388 -20 2763 -10 635 17 1015 33 1024 42 3 2 -9 19 -25 37
-78 84 -86 101 -98 229 -11 112 -79 197 -204 258 -77 37 -164 106 -168 133 -1
7 -7 32 -14 57 -7 25 -14 56 -16 70 -3 14 -7 33 -10 42 -3 9 -7 25 -9 35 -3
18 -43 193 -51 226 -10 41 -14 58 -40 172 -15 66 -28 122 -30 123 -1 2 -40
-23 -86 -55 -107 -76 -136 -93 -238 -144 -124 -61 -135 -63 -166 -31 -33 35
-54 76 -54 104 0 13 2 77 3 143 l3 120 76 41 c351 189 601 542 655 924 10 68
10 311 1 365 -27 155 -61 260 -123 386 l-43 85 40 35 c22 19 56 43 76 54 20
11 70 53 111 93 41 41 77 70 82 65 19 -19 77 -124 119 -216 l45 -98 49 53 c27
29 99 106 160 172 61 65 122 130 135 145 85 93 239 257 255 273 11 10 17 20
14 23 -3 3 -63 -9 -134 -26 -71 -17 -140 -33 -154 -35 -14 -3 -33 -7 -42 -10
-9 -3 -25 -6 -35 -9 -10 -2 -67 -15 -128 -29 -60 -14 -112 -23 -114 -20 -9 8
146 150 244 223 159 120 318 205 510 276 126 46 138 52 205 99 58 41 94 81 86
95 -3 4 -47 0 -98 -10 -51 -10 -109 -19 -129 -19 -40 0 -99 18 -99 30 0 15
-66 49 -96 50 -16 1 -96 -2 -179 -6 -198 -9 -202 -9 -218 5 -8 6 -22 33 -32
59 -33 88 -49 93 -135 42 -41 -25 -77 -49 -214 -146 -27 -19 -60 -34 -76 -34
-16 0 -40 -4 -53 -9 -20 -8 -30 -4 -59 25 l-36 34 19 83 c10 45 28 120 38 167
11 46 19 85 18 87 -1 1 -32 -26 -68 -60 -149 -140 -181 -167 -194 -167 -22 0
-51 36 -64 80 -22 74 -87 92 -140 40 -17 -17 -38 -44 -48 -60 -9 -17 -23 -30
-30 -30 -19 0 -41 40 -54 99 -12 59 -37 91 -71 92 -22 0 -38 3 -106 14 -37 7
-35 25 3 20 26 -2 42 9 26 19 -5 3 -42 9 -83 13 -40 3 -92 14 -115 24 -44 19
-68 23 -175 34 -67 7 -72 11 -83 55 -16 63 -50 159 -55 153 -4 -4 -24 -66 -45
-138 -21 -71 -39 -131 -40 -133 -9 -11 -105 -28 -117 -21 -8 4 -21 27 -28 49
-19 59 -52 73 -173 75 -83 2 -100 5 -112 21 -8 11 -15 22 -15 25 0 12 -54 21
-119 20 -83 -2 -141 29 -165 89 -14 35 -20 40 -47 40 -38 0 -64 28 -93 100
-18 45 -27 56 -48 58 -19 2 -31 -4 -45 -24 -79 -117 -149 -126 -182 -23 l-12
37 -132 0 c-183 -1 -778 11 -802 16 -17 3 -134 14 -232 21 -20 1 -38 -4 -46
-14z"/>
<path d="M4315 2938 c12 -78 13 -350 2 -413 -6 -30 -8 -57 -5 -61 5 -4 631
181 688 203 8 4 17 7 20 8 3 0 40 12 83 24 71 22 85 32 54 37 -13 2 -255 76
-327 100 -94 30 -505 154 -514 154 -5 0 -5 -22 -1 -52z"/>
<path d="M4218 2129 c-3 -8 -7 -18 -9 -24 -21 -66 -128 -256 -201 -356 -26
-37 -48 -69 -48 -72 0 -3 35 -13 78 -23 42 -9 163 -36 267 -61 105 -24 201
-47 215 -49 36 -7 281 -64 304 -71 10 -3 17 -1 15 5 -3 8 -111 125 -254 276
-43 45 -229 245 -312 335 -34 38 -51 50 -55 40z"/>
</g>
</svg>
